HIERARCHY
ROOT hip
{
  OFFSET 0 0 0
  CHANNELS 6 Xposition Yposition Zposition Zrotation Yrotation Xrotation
  JOINT abdomen
  {
    OFFSET 0 20.6881 -0.73152
    CHANNELS 3 Zrotation Xrotation Yrotation
    JOINT chest
    {
      OFFSET 0 11.7043 -0.48768
      CHANNELS 3 Zrotation Xrotation Yrotation
      JOINT neck
      {
        OFFSET 0 22.1894 -2.19456
        CHANNELS 3 Zrotation Xrotation Yrotation
        JOINT head
        {
          OFFSET -0.24384 7.07133 1.2192
          CHANNELS 3 Zrotation Xrotation Yrotation
          JOINT leftEye
          {
            OFFSET 4.14528 8.04674 8.04672
            CHANNELS 3 Zrotation Xrotation Yrotation
            End Site
            {
              OFFSET 1 0 0
            }
          }
          JOINT rightEye
          {
            OFFSET -3.6576 8.04674 8.04672
            CHANNELS 3 Zrotation Xrotation Yrotation
            End Site
            {
              OFFSET 1 0 0
            }
          }
        }
      }
      JOINT rCollar
      {
        OFFSET -2.68224 19.2634 -4.8768
        CHANNELS 3 Zrotation Xrotation Yrotation
        JOINT rShldr
        {
          OFFSET -8.77824 -1.95073 1.46304
          CHANNELS 3 Zrotation Xrotation Yrotation
          JOINT rForeArm
          {
            OFFSET -28.1742 -1.7115 0.48768
            CHANNELS 3 Zrotation Xrotation Yrotation
            JOINT rHand
            {
              OFFSET -22.5879 0.773209 7.07136
              CHANNELS 3 Zrotation Xrotation Yrotation
              JOINT rThumb1
              {
                OFFSET -1.2192 -0.487915 3.41376
                CHANNELS 3 Zrotation Xrotation Yrotation
                JOINT rThumb2
                {
                  OFFSET -3.37035 -0.52449 3.41376
                  CHANNELS 3 Zrotation Xrotation Yrotation
                  End Site
                  {
                    OFFSET -1.78271 -1.18214 1.43049
                  }
                }
              }
              JOINT rIndex1
              {
                OFFSET -7.75947 0.938293 5.60832
                CHANNELS 3 Zrotation Xrotation Yrotation
                JOINT rIndex2
                {
                  OFFSET -2.54057 -0.884171 1.56538
                  CHANNELS 3 Zrotation Xrotation Yrotation
                  End Site
                  {
                    OFFSET -1.62519 -0.234802 1.16502
                  }
                }
              }
              JOINT rMid1
              {
                OFFSET -8.24714 1.18213 3.41376
                CHANNELS 3 Zrotation Xrotation Yrotation
                JOINT rMid2
                {
                  OFFSET -3.10165 -0.590103 1.0647
                  CHANNELS 3 Zrotation Xrotation Yrotation
                  End Site
                  {
                    OFFSET -2.48547 -0.328903 0.83742
                  }
                }
              }
              JOINT rRing1
              {
                OFFSET -8.82822 0.546677 1.51678
                CHANNELS 3 Zrotation Xrotation Yrotation
                JOINT rRing2
                {
                  OFFSET -2.60934 -0.819778 -0.0198488
                  CHANNELS 3 Zrotation Xrotation Yrotation
                  End Site
                  {
                    OFFSET -2.33842 -0.294052 0.168128
                  }
                }
              }
              JOINT rPinky1
              {
                OFFSET -8.27202 -0.0477905 -0.4584
                CHANNELS 3 Zrotation Xrotation Yrotation
                JOINT rPinky2
                {
                  OFFSET -1.82734 -0.647385 -0.700984
                  CHANNELS 3 Zrotation Xrotation Yrotation
                  End Site
                  {
                    OFFSET -1.69225 -0.51767 -0.607171
                  }
                }
              }
            }
          }
        }
      }
      JOINT lCollar
      {
        OFFSET 2.68224 19.2634 -4.8768
        CHANNELS 3 Zrotation Xrotation Yrotation
        JOINT lShldr
        {
          OFFSET 8.77824 -1.95073 1.46304
          CHANNELS 3 Zrotation Xrotation Yrotation
          JOINT lForeArm
          {
            OFFSET 28.1742 -1.7115 0.48768
            CHANNELS 3 Zrotation Xrotation Yrotation
            JOINT lHand
            {
              OFFSET 22.5879 0.773209 7.07136
              CHANNELS 3 Zrotation Xrotation Yrotation
              JOINT lThumb1
              {
                OFFSET 1.2192 -0.487915 3.41376
                CHANNELS 3 Zrotation Xrotation Yrotation
                JOINT lThumb2
                {
                  OFFSET 3.37035 -0.52449 3.41376
                  CHANNELS 3 Zrotation Xrotation Yrotation
                  End Site
                  {
                    OFFSET 1.78271 -1.18214 1.43049
                  }
                }
              }
              JOINT lIndex1
              {
                OFFSET 7.75947 0.938293 5.60832
                CHANNELS 3 Zrotation Xrotation Yrotation
                JOINT lIndex2
                {
                  OFFSET 2.54057 -0.884171 1.56538
                  CHANNELS 3 Zrotation Xrotation Yrotation
                  End Site
                  {
                    OFFSET 1.62519 -0.234802 1.16502
                  }
                }
              }
              JOINT lMid1
              {
                OFFSET 8.24714 1.18213 3.41376
                CHANNELS 3 Zrotation Xrotation Yrotation
                JOINT lMid2
                {
                  OFFSET 3.10165 -0.590103 1.0647
                  CHANNELS 3 Zrotation Xrotation Yrotation
                  End Site
                  {
                    OFFSET 2.48547 -0.328903 0.83742
                  }
                }
              }
              JOINT lRing1
              {
                OFFSET 8.82822 0.546677 1.51678
                CHANNELS 3 Zrotation Xrotation Yrotation
                JOINT lRing2
                {
                  OFFSET 2.60934 -0.819778 -0.0198488
                  CHANNELS 3 Zrotation Xrotation Yrotation
                  End Site
                  {
                    OFFSET 2.33842 -0.294052 0.168128
                  }
                }
              }
              JOINT lPinky1
              {
                OFFSET 8.27202 -0.0477905 -0.4584
                CHANNELS 3 Zrotation Xrotation Yrotation
                JOINT lPinky2
                {
                  OFFSET 1.82734 -0.647385 -0.700984
                  CHANNELS 3 Zrotation Xrotation Yrotation
                  End Site
                  {
                    OFFSET 1.69225 -0.51767 -0.607171
                  }
                }
              }
            }
          }
        }
      }
    }
  }
  JOINT rButtock
  {
    OFFSET -8.77824 4.35084 1.2192
    CHANNELS 3 Zrotation Xrotation Yrotation
    JOINT rThigh
    {
      OFFSET 0 -1.70687 -2.19456
      CHANNELS 3 Zrotation Xrotation Yrotation
      JOINT rShin
      {
        OFFSET 0 -36.8199 0.73152
        CHANNELS 3 Zrotation Xrotation Yrotation
        JOINT rFoot
        {
          OFFSET 0.73152 -45.1104 -5.12064
          CHANNELS 3 Zrotation Xrotation Yrotation
          End Site
          {
            OFFSET -1.1221 -3.69964 12.103
          }
        }
      }
    }
  }
  JOINT lButtock
  {
    OFFSET 8.77824 4.35084 1.2192
    CHANNELS 3 Zrotation Xrotation Yrotation
    JOINT lThigh
    {
      OFFSET 0 -1.70687 -2.19456
      CHANNELS 3 Zrotation Xrotation Yrotation
      JOINT lShin
      {
        OFFSET 0 -36.8199 0.73152
        CHANNELS 3 Zrotation Xrotation Yrotation
        JOINT lFoot
        {
          OFFSET -0.73152 -45.1104 -5.12064
          CHANNELS 3 Zrotation Xrotation Yrotation
          End Site
          {
            OFFSET 1.1221 -3.69964 12.103
          }
        }
      }
    }
  }
}
MOTION
Frames:	7
Frame Time:	0.00833333
-29.7185 83.6856 27.202 -27.7978 79.3404 -17.7211 7.67399 -0.209444 2.409 -0.153209 -16.1046 0.853056 1.4053 5.30982 -3.00776 -1.28719 34.4613 -1.31638 -0.0 0.0 0.0 -0.0 0.0 0.0 -2.05072e-14 1.7749e-12 -2.12283e-13 76.891 43.4782 -18.9601 -23.8614 -18.838 49.1888 -0.27208 -14.6852 -2.11078 7.03252e-10 -2.04712e-09 2.79218e-09 1.17508e-09 -3.54496e-09 4.82598e-09 7.03253e-10 -2.04711e-09 2.79217e-09 7.73091 5.47488 0.417314 7.03251e-10 -2.04711e-09 2.79218e-09 2.90554 0.965183 0.102902 7.03258e-10 -2.04711e-09 2.79218e-09 10.2786 0.731801 0.0259123 7.03248e-10 -2.04711e-09 2.79219e-09 2.22167 -0.733487 -0.20892 -2.05712e-14 1.7749e-12 -2.12523e-13 -73.9879 25.0579 10.2729 15.844 -8.54567 -29.3379 0.162197 11.4833 -1.63557 1.12167e-09 1.32991e-09 2.24608e-09 1.96191e-09 2.28365e-09 3.8709e-09 1.12166e-09 1.32991e-09 2.24609e-09 -7.73091 5.47488 -0.417314 1.12167e-09 1.32991e-09 2.24608e-09 -2.90554 0.965183 -0.102902 1.12166e-09 1.32991e-09 2.24609e-09 -10.2786 0.731801 -0.0259123 1.12167e-09 1.32992e-09 2.24608e-09 -2.22167 -0.733487 0.20892 -2.03217e-16 0.0 -3.88251e-19 14.5728 -16.8744 4.48117 -0.00474897 23.9888 0.520624 -0.54625 -4.68054 -11.8066 2.03217e-16 0.0 3.88251e-19 -4.80875 -13.6448 -18.6044 -0.00134345 5.11988 -0.143283 2.04334 -17.7262 8.33364
-29.3731 83.3167 27.1021 -26.0669 79.1639 -16.0494 6.87836 -0.0279355 2.33844 0.098392 -16.1923 0.864973 1.58632 5.16372 -2.93536 -1.36957 33.8835 -1.32628 -0.0 0.0 0.0 -0.0 0.0 0.0 2.88383e-14 3.56181e-13 -7.50979e-14 76.6229 42.8925 -18.6736 -23.9407 -18.9845 49.4365 -0.282749 -14.9649 -2.15284 3.89328e-10 -1.24656e-09 1.67434e-09 6.48264e-10 -2.15605e-09 2.8912e-09 3.89329e-10 -1.24655e-09 1.67433e-09 7.73091 5.47488 0.417314 3.89326e-10 -1.24655e-09 1.67434e-09 2.90554 0.965183 0.102902 3.89334e-10 -1.24655e-09 1.67434e-09 10.2786 0.731801 0.0259123 3.89327e-10 -1.24655e-09 1.67435e-09 2.22167 -0.733487 -0.20892 2.88558e-14 3.56178e-13 -7.53111e-14 -74.2189 24.5922 10.5433 16.0646 -8.74923 -29.8051 0.137485 10.5711 -1.50262 1.46268e-10 1.26354e-09 2.12333e-09 2.73772e-10 2.17427e-09 3.67266e-09 1.46258e-10 1.26354e-09 2.12334e-09 -7.73091 5.47488 -0.417314 1.46262e-10 1.26354e-09 2.12333e-09 -2.90554 0.965183 -0.102902 1.4626e-10 1.26354e-09 2.12333e-09 -10.2786 0.731801 -0.0259123 1.46272e-10 1.26354e-09 2.12333e-09 -2.22167 -0.733487 0.20892 -2.03217e-16 0.0 -3.88251e-19 13.935 -17.8365 4.2086 -0.0336677 26.216 0.579209 -0.585491 -5.18965 -10.8855 2.03217e-16 0.0 3.88251e-19 -5.53712 -13.6175 -18.6739 0.00121398 6.0122 -0.132211 1.84602 -18.8285 7.37003
-29.1432 83.0128 26.9938 -24.0132 79.1091 -13.9375 6.21009 0.0852147 2.25773 0.305317 -16.2323 0.866962 1.71065 4.97761 -2.8622 -1.45062 33.2493 -1.33657 -0.0 0.0 0.0 -0.0 0.0 0.0 4.82786e-14 -4.29199e-13 8.05078e-15 76.4157 42.5039 -18.3967 -23.9358 -18.9777 49.4071 -0.292288 -15.2068 -2.18935 1.67623e-10 -6.15234e-10 8.05844e-10 2.77528e-10 -1.06168e-09 1.38897e-09 1.67624e-10 -6.15226e-10 8.05835e-10 7.73091 5.47488 0.417314 1.6762e-10 -6.15227e-10 8.05838e-10 2.90554 0.965183 0.102902 1.6763e-10 -6.1523e-10 8.0584e-10 10.2786 0.731801 0.0259123 1.67625e-10 -6.15229e-10 8.05844e-10 2.22167 -0.733487 -0.20892 4.8334e-14 -4.29203e-13 7.85199e-15 -74.361 24.2294 10.5859 16.1837 -8.85908 -30.0615 0.120159 9.83646 -1.39631 -3.44228e-10 1.02173e-09 1.80207e-09 -5.77773e-10 1.76012e-09 3.12436e-09 -3.44239e-10 1.02173e-09 1.80208e-09 -7.73091 5.47488 -0.417314 -3.44236e-10 1.02173e-09 1.80207e-09 -2.90554 0.965183 -0.102902 -3.44237e-10 1.02173e-09 1.80208e-09 -10.2786 0.731801 -0.0259123 -3.44225e-10 1.02174e-09 1.80207e-09 -2.22167 -0.733487 0.20892 -2.03217e-16 0.0 -3.88251e-19 13.4765 -18.7201 4.43269 -0.0576636 27.7177 0.618864 -0.657285 -6.03483 -10.0763 2.03217e-16 0.0 3.88251e-19 -6.15108 -13.6707 -18.7508 0.00338459 6.7294 -0.122817 1.63746 -19.6565 6.54205
-29.006 82.7943 26.8998 -22.0672 79.1313 -11.8412 5.64148 0.125849 2.1497 0.473559 -16.2104 0.8544 1.76982 4.73518 -2.78581 -1.50981 32.5194 -1.35542 -0.0 0.0 0.0 -0.0 0.0 0.0 1.76903e-14 -1.91863e-13 2.72979e-15 76.2507 42.3372 -18.0717 -23.8247 -18.7728 49.0576 -0.30246 -15.4571 -2.22723 1.25114e-10 -1.93506e-10 2.45093e-10 2.12471e-10 -3.32749e-10 4.21547e-10 1.25115e-10 -1.935e-10 2.45084e-10 7.73091 5.47488 0.417314 1.25111e-10 -1.935e-10 2.45088e-10 2.90554 0.965183 0.102902 1.2512e-10 -1.93502e-10 2.4509e-10 10.2786 0.731801 0.0259123 1.25115e-10 -1.93502e-10 2.45095e-10 2.22167 -0.733487 -0.20892 1.77105e-14 -1.91869e-13 2.52441e-15 -74.3728 23.9536 10.3146 16.1627 -8.83875 -30.0182 0.108256 9.30841 -1.32012 -5.3531e-11 4.66105e-10 1.13382e-09 -8.19673e-11 8.0131e-10 1.96525e-09 -5.35415e-11 4.66114e-10 1.13382e-09 -7.73091 5.47488 -0.417314 -5.35376e-11 4.66113e-10 1.13381e-09 -2.90554 0.965183 -0.102902 -5.35394e-11 4.66114e-10 1.13382e-09 -10.2786 0.731801 -0.0259123 -5.35285e-11 4.66114e-10 1.13381e-09 -2.22167 -0.733487 0.20892 -2.03217e-16 0.0 -3.88251e-19 13.2707 -19.5749 5.28686 -0.0728055 28.4206 0.635444 -0.747037 -7.37789 -9.23657 2.03217e-16 0.0 3.88251e-19 -6.64215 -13.9181 -18.7297 0.00571513 7.34452 -0.119094 1.40809 -20.04 5.80884
-28.9336 82.6797 26.8353 -20.5844 79.1876 -10.1455 5.09062 0.13135 2.01704 0.626927 -16.1434 0.831295 1.78004 4.43425 -2.70315 -1.56522 31.6928 -1.37616 -0.0 0.0 0.0 -0.0 0.0 0.0 -4.37764e-14 6.43839e-13 -5.32463e-14 76.1351 42.3295 -17.7272 -23.6249 -18.408 48.46 -0.312543 -15.7007 -2.26421 1.74298e-10 1.59922e-10 -2.08251e-10 3.04607e-10 2.76387e-10 -3.5847e-10 1.74298e-10 1.59926e-10 -2.08259e-10 7.73091 5.47488 0.417314 1.74296e-10 1.59926e-10 -2.08254e-10 2.90554 0.965183 0.102902 1.74303e-10 1.59925e-10 -2.08253e-10 10.2786 0.731801 0.0259123 1.74298e-10 1.59924e-10 -2.08244e-10 2.22167 -0.733487 -0.20892 -4.38377e-14 6.43831e-13 -5.34731e-14 -74.296 23.7296 9.80938 16.0424 -8.72681 -29.7621 0.098844 8.90196 -1.26149 6.96471e-10 -3.21873e-10 1.90732e-10 1.20532e-09 -5.6015e-10 3.24578e-10 6.96461e-10 -3.21864e-10 1.90735e-10 -7.73091 5.47488 -0.417314 6.96466e-10 -3.21863e-10 1.90727e-10 -2.90554 0.965183 -0.102902 6.96463e-10 -3.21862e-10 1.90731e-10 -10.2786 0.731801 -0.0259123 6.96473e-10 -3.21861e-10 1.9072e-10 -2.22167 -0.733487 0.20892 -2.03217e-16 0.0 -3.88251e-19 13.2404 -20.4733 6.64012 -0.0824049 28.63 0.63747 -0.827548 -9.07781 -8.40726 2.03217e-16 0.0 3.88251e-19 -7.11712 -14.3952 -18.6381 0.0083847 8.02869 -0.12119 1.15949 -20.1282 5.10005
-28.8912 82.6766 26.7961 -19.6713 79.2534 -8.9821 4.68027 0.0829933 1.89635 0.7341 -16.0507 0.805054 1.74896 4.11315 -2.62219 -1.64956 30.8587 -1.38564 -0.0 0.0 0.0 -0.0 0.0 0.0 -1.05206e-13 1.52007e-12 -1.10765e-13 76.0904 42.4738 -17.457 -23.3576 -17.9365 47.6645 -0.318524 -15.845 -2.28614 1.85104e-10 4.29897e-10 -5.35363e-10 3.28696e-10 7.41018e-10 -9.20612e-10 1.85104e-10 4.29898e-10 -5.3537e-10 7.73091 5.47488 0.417314 1.85102e-10 4.29899e-10 -5.35364e-10 2.90554 0.965183 0.102902 1.85109e-10 4.29898e-10 -5.35364e-10 10.2786 0.731801 0.0259123 1.85102e-10 4.29898e-10 -5.35352e-10 2.22167 -0.733487 -0.20892 -1.0535e-13 1.52006e-12 -1.11011e-13 -74.2058 23.6161 9.20833 15.8837 -8.57996 -29.4268 0.0920722 8.61544 -1.22016 1.48055e-09 -1.09195e-09 -7.47181e-10 2.5518e-09 -1.891e-09 -1.30789e-09 1.48054e-09 -1.09194e-09 -7.4718e-10 -7.73091 5.47488 -0.417314 1.48054e-09 -1.09194e-09 -7.47189e-10 -2.90554 0.965183 -0.102902 1.48054e-09 -1.09194e-09 -7.47185e-10 -10.2786 0.731801 -0.0259123 1.48055e-09 -1.09194e-09 -7.47197e-10 -2.22167 -0.733487 0.20892 -2.03217e-16 0.0 -3.88251e-19 13.365 -21.2237 8.31849 -0.0835432 28.2823 0.622265 -0.92682 -10.8809 -7.88462 2.03217e-16 0.0 3.88251e-19 -7.51704 -14.8188 -18.6942 0.0104958 8.48926 -0.12001 0.972171 -20.1909 4.5751
-28.8511 82.7824 26.7772 -19.3305 79.3153 -8.3705 4.53318 -0.0379436 1.82424 0.763699 -15.9514 0.783061 1.68382 3.81023 -2.55084 -1.79455 30.1061 -1.37104 -0.0 0.0 0.0 -0.0 0.0 0.0 -1.35684e-13 1.87899e-12 -1.20712e-13 76.14 42.7632 -17.3566 -23.046 -17.4131 46.7191 -0.316204 -15.7975 -2.27882 2.74625e-11 6.01265e-10 -7.17419e-10 5.94982e-11 1.03643e-09 -1.23441e-09 2.74629e-11 6.01264e-10 -7.17425e-10 7.73091 5.47488 0.417314 2.7461e-11 6.01265e-10 -7.17419e-10 2.90554 0.965183 0.102902 2.74669e-11 6.01265e-10 -7.17419e-10 10.2786 0.731801 0.0259123 2.74589e-11 6.01264e-10 -7.17406e-10 2.22167 -0.733487 -0.20892 -1.35864e-13 1.87898e-12 -1.2096e-13 -74.172 23.6743 8.64739 15.7494 -8.45644 -29.1453 0.0883223 8.44717 -1.19594 1.87347e-09 -1.59387e-09 -1.39992e-09 3.22516e-09 -2.75798e-09 -2.44241e-09 1.87346e-09 -1.59386e-09 -1.39992e-09 -7.73091 5.47488 -0.417314 1.87346e-09 -1.59386e-09 -1.39993e-09 -2.90554 0.965183 -0.102902 1.87346e-09 -1.59386e-09 -1.39993e-09 -10.2786 0.731801 -0.0259123 1.87347e-09 -1.59386e-09 -1.39994e-09 -2.22167 -0.733487 0.20892 -2.03217e-16 0.0 -3.88251e-19 13.5883 -21.6417 10.1342 -0.0744837 27.314 0.587892 -1.12236 -12.5282 -7.96948 2.03217e-16 0.0 3.88251e-19 -7.78741 -14.9036 -19.1149 0.0109457 8.43359 -0.106412 0.916128 -20.5006 4.3901
